<?xml version="1.0" encoding="UTF-8"?>
<svg width="32" height="32" viewBox="0 0 32 32" fill="none" xmlns="http://www.w3.org/2000/svg">
  <!-- Background circle -->
  <circle cx="16" cy="16" r="15" fill="#003366"/>
  
  <!-- Gear icon -->
  <g transform="translate(11, 11)">
    <!-- Outer gear teeth -->
    <path d="M5 1 L6 2 L7 1 L8 2 L9 1 L9 3 L8 4 L9 5 L9 7 L8 8 L9 9 L7 9 L6 8 L5 9 L3 9 L2 8 L1 9 L1 7 L2 6 L1 5 L1 3 L2 2 L1 1 L3 1 L4 2 L5 1 Z" fill="#FFFFFF"/>
    <!-- Inner circle -->
    <circle cx="5" cy="5" r="2" fill="#0066CC"/>
    <!-- Center hole -->
    <circle cx="5" cy="5" r="0.8" fill="#FFFFFF"/>
  </g>
</svg> 