<?xml version="1.0" encoding="UTF-8"?>
<svg width="200" height="60" viewBox="0 0 200 60" fill="none" xmlns="http://www.w3.org/2000/svg">
  <!-- Background circle -->
  <circle cx="30" cy="30" r="25" fill="#003366" stroke="#0066CC" stroke-width="2"/>
  
  <!-- Gear icon -->
  <g transform="translate(20, 20)">
    <!-- Outer gear teeth -->
    <path d="M10 2 L12 4 L14 2 L16 4 L18 2 L18 6 L16 8 L18 10 L18 14 L16 16 L18 18 L14 18 L12 16 L10 18 L6 18 L4 16 L2 18 L2 14 L4 12 L2 10 L2 6 L4 4 L2 2 L6 2 L8 4 L10 2 Z" fill="#FFFFFF" stroke="#E5E7EB" stroke-width="0.5"/>
    <!-- Inner circle -->
    <circle cx="10" cy="10" r="4" fill="#0066CC"/>
    <!-- Center hole -->
    <circle cx="10" cy="10" r="1.5" fill="#FFFFFF"/>
  </g>
  
  <!-- Company name -->
  <text x="65" y="22" font-family="Arial, sans-serif" font-size="16" font-weight="bold" fill="#003366">CLASSIC</text>
  <text x="65" y="38" font-family="Arial, sans-serif" font-size="16" font-weight="bold" fill="#003366">ENGINEERING</text>
  <text x="65" y="52" font-family="Arial, sans-serif" font-size="10" font-weight="normal" fill="#666666">CORP</text>
  
  <!-- Decorative line -->
  <line x1="65" y1="42" x2="190" y2="42" stroke="#0066CC" stroke-width="2"/>
</svg> 